<?xml version="1.0" encoding="utf-8"?>
<!-- Generator: Adobe Illustrator 19.1.0, SVG Export Plug-In . SVG Version: 6.00 Build 0)  -->
<svg version="1.1" id="Lockup" xmlns="http://www.w3.org/2000/svg" xmlns:xlink="http://www.w3.org/1999/xlink" x="0px" y="0px"
	 viewBox="1725 -141 6689 1770" style="enable-background:new 1725 -141 6689 1770;" xml:space="preserve">
<style type="text/css">
	.st0{fill:#231F20;}
</style>
<g>
	<path class="st0" d="M2630.4,785.5c1.4,145.1,127.3,193.1,128.6,193.8c-1,3.4-20,68.8-66,136.2c-40,58.4-81.4,116.4-146.7,117.7
		c-64,1.2-84.7-38.1-158-38.1c-73.4,0-96.1,37-156.8,39.3c-63.1,2.4-111-63-151.3-121.2c-82.3-118.8-145.1-335.8-60.9-482.7
		c42-72.8,116.9-118.8,198.2-120.1c62-1.2,120.2,41.6,158.1,41.6c37.7,0,108.9-51.3,183.4-44c31.2,1.4,118.7,12.7,175.1,94.8
		C2729.5,605.8,2629.4,664.1,2630.4,785.5 M2509.8,429.5c33.4-40.5,56-96.8,49.8-152.9c-48.2,2-106.7,32.3-141,72.6
		c-31.1,35.9-58.1,93.2-50.6,148.2C2421.7,501.5,2476.5,470,2509.8,429.5"/>
	<path class="st0" d="M3049.2,564.9h64.3v656.2h-64.3V564.9z M3026,365.2c0-15.4,5.2-28.7,15.7-39.6c10.5-11,23.5-16.5,39-16.5
		c15.5,0,28.7,5.5,39.7,16.5c10.9,10.9,16.4,24.1,16.4,39.6c0,15.5-5.5,28.5-16.4,38.9c-11,10.5-24.2,15.8-39.7,15.8
		c-15.5,0-28.5-5.2-39-15.8C3031.2,393.7,3026,380.7,3026,365.2"/>
	<path class="st0" d="M3326.8,769.9c15.5,4.6,32.8,7.8,51.9,9.7c19.2,1.8,39.7,2.7,61.5,2.7c81.1,0,144.4-19.2,190.1-57.4
		c45.6-38.3,68.3-94.3,68.3-168.2c0-35.5-5.9-66.5-17.8-92.9c-11.8-26.4-28.7-48-50.6-64.9c-21.9-16.9-47.9-29.6-78-38.3
		c-30.1-8.6-63.4-13-99.8-13c-29.2,0-54.2,1.2-75.2,3.5c-21,2.2-37.8,4.7-50.6,7.5V769.9z M3262.5,310.6
		c26.4-4.5,55.6-8.7,87.5-12.3c31.9-3.7,67-5.5,105.3-5.5c54.7,0,101.9,6.6,141.5,19.9c39.6,13.1,72.2,32.1,97.8,56.7
		c21.5,21.8,38.2,47.8,50.3,77.9c12.1,30.1,18.1,64.8,18.1,103.9c0,47.4-8.5,88.9-25.3,124.4c-16.8,35.6-39.7,65.4-68.8,89.6
		c-29.1,24.1-63.6,42.1-103.6,54c-40,11.8-83.6,17.8-130.8,17.8c-40.9,0-76.8-3.2-107.7-9.6v393.8h-64.3V310.6z"/>
	<path class="st0" d="M4184,869.7c-34.8-0.9-71.2,0.5-109.2,4.1c-38,3.7-73,11.6-105,23.9c-32.1,12.3-58.6,30.3-79.6,54
		c-21.1,23.8-31.6,55.2-31.6,94.4c0,23.7,3.7,43.9,11,60.9c7.3,16.8,16.9,30.8,28.8,41.7c11.9,11,25.6,19.2,41.2,24.6
		c15.6,5.5,31.6,8.2,48.1,8.2c26.5,0,50.3-3.6,71.4-10.9c21.1-7.3,39.4-17.1,54.9-29.4c15.6-12.3,28.6-26.2,39.2-41.7
		c10.5-15.5,18.5-31.5,24-47.9c4.6-16.4,6.8-29.7,6.8-39.6V869.7z M4248.3,1065.3c0,26.5,0.4,52.9,1.3,79.3
		c0.9,26.5,3.7,51.9,8.2,76.5h-60.2l-9.6-92.9h-2.7c-8.2,12.8-18.7,25.5-31.5,38.2c-12.8,12.8-27.6,24.4-44.4,34.9
		c-16.9,10.4-36,18.8-57.4,25.2c-21.4,6.4-44.9,9.6-70.4,9.6c-31.9,0-59.9-5.3-84.1-15.7c-24.1-10.4-44-24.1-59.5-40.8
		c-15.5-16.9-27.1-36.1-34.9-57.9c-7.8-21.8-11.6-43.7-11.6-65.5c0-76.2,32.8-135.6,98.4-177.8c65.6-42.3,163.6-62.5,294-60.6v-17.9
		c0-17.4-1.6-37.4-4.8-59.9c-3.2-22.5-10.3-43.8-21.3-64c-11-20.2-27.5-37.1-49.4-50.9c-22-13.8-51.7-20.6-89.2-20.6
		c-28.4,0-56.6,4.3-84.4,13c-27.9,8.7-53.3,20.8-76.2,36.2l-20.5-47.8c29.2-20,59.4-34.3,90.5-43c31.1-8.7,63.6-13,97.4-13
		c45.8,0,83,7.8,111.9,23.2c28.8,15.5,51.4,35.5,67.9,60.1c16.4,24.6,27.6,52.2,33.6,82.7c5.9,30.5,8.9,60.9,8.9,91V1065.3z"/>
	<path class="st0" d="M4841.7,823.3c0-19.2-2.3-38.8-6.8-58.8c-5.4-21.9-14.1-42.6-25.9-62.2c-11.9-19.6-26.5-36.4-43.8-50.6
		c-17.3-14.1-37.2-25.5-59.5-34.2c-22.4-8.6-46.3-13-71.8-13c-34.7,0-66.1,7.3-94.3,21.9c-28.3,14.6-52.2,35.1-71.8,61.5
		c-19.6,26.5-34.7,57.7-45.1,93.7c-10.4,36-15.7,75-15.7,116.9c0,37.4,4.5,72.9,13.7,106.6c9.1,33.8,23,63.8,41.7,90.2
		c18.7,26.5,41.9,47.4,69.7,63c27.8,15.5,60.8,23.2,99.1,23.2c44.6,0,86.1-14.3,124.4-43.1c38.3-28.6,64.8-70.9,79.3-126.4
		c4.6-18.3,6.8-36,6.8-53.4V823.3z M4906,251.8v817.6c0,23.7,0.5,49.2,1.4,76.6c0.9,27.3,2.3,52.4,4.1,75.2h-61.5v-121.6h-4.1
		c-16.4,35.5-43.7,67.2-82,95c-38.3,27.8-87.1,41.7-146.3,41.7c-39.2,0-75.5-8-108.7-23.9c-33.3-15.9-62.2-38.5-86.8-67.6
		c-24.6-29.1-44-64.1-58.1-104.6c-14.1-40.6-21.2-85.9-21.2-136.1c0-54.7,7.5-103.9,22.6-147.6c15.1-43.8,35.6-80.9,61.5-111.5
		c26-30.5,56.5-54,91.6-70.4c35.1-16.4,72.7-24.6,112.8-24.6c27.4,0,52,3.2,73.8,9.5c21.9,6.4,41.5,14.8,58.8,25.3
		c17.3,10.5,32.3,22.6,45.1,36.2c12.7,13.7,22.7,27.8,30,42.4h2.7V251.8H4906z"/>
	<path class="st0" d="M5257.4,722.1c0-31-0.5-58.3-1.3-82c-0.9-23.7-2.3-48.7-4.1-75.2h62.9v113.4h5.4
		c20.1-36.9,46.5-67.4,79.4-91.3c32.8-23.8,75.6-35.8,128.5-35.8c44.7,0,83.2,13.2,115.5,39.3c32.4,26.2,55.4,59.6,69.1,100.2h2.7
		c18.3-36.1,40.5-65,66.8-86.7c20.9-17.2,43-30.2,66.2-39.3c23.1-9,51.4-13.5,85.1-13.5c16.4,0,36.4,3.2,59.9,9.6
		c23.7,6.4,46.7,19.5,68.9,39.6c22.2,20,41.3,48.2,57.2,84.5c15.9,36.5,23.8,85.1,23.8,146v390.2h-64.2V838.3
		c0-72.9-13.5-129.9-40.3-171c-26.9-41-69.1-61.5-126.6-61.5c-40,0-74.9,13-104.5,39c-29.7,26-50.8,56.3-63.6,90.9
		c-2.8,10-5.2,20.2-7.5,30.7c-2.3,10.5-3.4,21.7-3.4,33.5v421.1h-64.4V808.2c0-58.3-13.4-106.7-40.3-144.9
		c-26.9-38.2-66.7-57.4-119.7-57.4c-20.8,0-40.9,4.2-60.1,12.3c-19.1,8.2-36.2,18.9-51.3,32.1c-15,13.3-28.2,28.8-39.6,46.5
		c-11.4,17.8-20.3,36.2-26.6,55.4c-2.7,10.1-5.1,20.3-6.8,30.7c-1.9,10.5-2.8,21.7-2.8,33.5v404.7h-64.2V722.1z"/>
	<path class="st0" d="M6300.5,564.9h64.3v656.2h-64.3V564.9z M6277.3,365.2c0-15.4,5.2-28.7,15.7-39.6c10.5-11,23.4-16.5,39-16.5
		c15.4,0,28.7,5.5,39.6,16.5c11,10.9,16.5,24.1,16.5,39.6c0,15.6-5.5,28.5-16.5,38.9c-10.8,10.5-24.1,15.8-39.6,15.8
		c-15.6,0-28.5-5.2-39-15.8C6282.5,393.7,6277.3,380.8,6277.3,365.2"/>
	<path class="st0" d="M6527.5,722.1c0-31-0.5-58.3-1.4-82c-0.9-23.7-2.2-48.7-4-75.2h62.9v116.2h5.5c17.3-36.1,45.1-66.8,83.4-92
		c38.3-25.3,83.7-37.9,136.8-37.9c15.4,0,35.7,2.9,60.8,8.9c25.1,5.9,49.7,18.5,73.9,37.5c24,19.1,44.7,46.6,62.1,82.6
		c17.3,35.9,26,83.8,26,143.8v397.1h-64.2v-391c0-29.2-3-57.4-8.9-84.8c-6.1-27.3-15.7-51.3-29.5-71.8
		c-13.7-20.5-31.9-36.9-54.6-49.3c-22.8-12.3-50.7-18.5-83.5-18.5c-45.5,0-85.6,14.2-120.3,42.4c-34.6,28.3-58.3,64.2-71.1,108
		c-6.3,17.3-9.5,36.5-9.5,57.4v407.4h-64.4V722.1z"/>
	<path class="st0" d="M7190.6,564.9h64.2v656.2h-64.2V564.9z M7167.4,365.2c0-15.4,5.2-28.7,15.8-39.6c10.5-11,23.4-16.5,38.9-16.5
		c15.6,0,28.8,5.5,39.7,16.5c11,10.9,16.4,24.1,16.4,39.6c0,15.6-5.4,28.5-16.4,38.9c-10.9,10.5-24.1,15.8-39.7,15.8
		c-15.5,0-28.4-5.2-38.9-15.8C7172.6,393.7,7167.4,380.8,7167.4,365.2"/>
	<path class="st0" d="M7973.1,905.1V549.4c0-43.8,1.4-86.2,4.1-127.2l-4.1-1.4c-13.7,26.5-26,48.4-36.9,65.7
		c-11,17.3-21.9,34.7-32.9,52l-268.1,363.9v2.7H7973.1z M7973.1,1221.1V959.9h-414.5v-43.8l422.9-584.1h55.9v573.2h134.1v54.7
		h-134.1v261.3H7973.1z"/>
</g>
</svg>
