<?xml version="1.0" encoding="utf-8"?>
<!-- Generator: Adobe Illustrator 19.1.0, SVG Export Plug-In . SVG Version: 6.00 Build 0)  -->
<svg version="1.1" id="Lockup" xmlns="http://www.w3.org/2000/svg" xmlns:xlink="http://www.w3.org/1999/xlink" x="0px" y="0px"
	 viewBox="3039 -489 6689 1770" style="enable-background:new 3039 -489 6689 1770;" xml:space="preserve">
<style type="text/css">
	.st0{fill:#231F20;}
</style>
<g>
	<path class="st0" d="M3686.8,2997.5c1.4,145.1,127.3,193.1,128.6,193.8c-1,3.4-20,68.8-66,136.2c-40,58.4-81.4,116.4-146.7,117.7
		c-64,1.2-84.7-38.1-158-38.1c-73.4,0-96.1,37-156.8,39.3c-63.1,2.4-111-63-151.3-121.2c-82.3-118.8-145.1-335.8-60.9-482.7
		c42-72.8,116.9-118.8,198.2-120.1c62-1.2,120.2,41.6,158.1,41.6c37.7,0,108.9-51.3,183.4-44c31.2,1.4,118.7,12.7,175.1,94.8
		C3785.9,2817.8,3685.8,2876.1,3686.8,2997.5 M3566.2,2641.5c33.4-40.5,56-96.8,49.8-152.9c-48.2,2-106.7,32.3-141,72.6
		c-31.1,35.9-58.1,93.2-50.6,148.2C3478.1,2713.5,3532.9,2682,3566.2,2641.5"/>
	<path class="st0" d="M4105.6,2776.9h64.3v656.2h-64.3V2776.9z M4082.4,2577.2c0-15.4,5.2-28.7,15.7-39.6c10.5-11,23.5-16.5,39-16.5
		s28.7,5.5,39.7,16.5c10.9,10.9,16.4,24.1,16.4,39.6s-5.5,28.5-16.4,38.9c-11,10.5-24.2,15.8-39.7,15.8s-28.5-5.2-39-15.8
		C4087.6,2605.7,4082.4,2592.7,4082.4,2577.2"/>
	<path class="st0" d="M4383.2,2981.9c15.5,4.6,32.8,7.8,51.9,9.7c19.2,1.8,39.7,2.7,61.5,2.7c81.1,0,144.4-19.2,190.1-57.4
		c45.6-38.3,68.3-94.3,68.3-168.2c0-35.5-5.9-66.5-17.8-92.9c-11.8-26.4-28.7-48-50.6-64.9c-21.9-16.9-47.9-29.6-78-38.3
		c-30.1-8.6-63.4-13-99.8-13c-29.2,0-54.2,1.2-75.2,3.5c-21,2.2-37.8,4.7-50.6,7.5v411.3H4383.2z M4318.9,2522.6
		c26.4-4.5,55.6-8.7,87.5-12.3c31.9-3.7,67-5.5,105.3-5.5c54.7,0,101.9,6.6,141.5,19.9c39.6,13.1,72.2,32.1,97.8,56.7
		c21.5,21.8,38.2,47.8,50.3,77.9c12.1,30.1,18.1,64.8,18.1,103.9c0,47.4-8.5,88.9-25.3,124.4c-16.8,35.6-39.7,65.4-68.8,89.6
		c-29.1,24.1-63.6,42.1-103.6,54c-40,11.8-83.6,17.8-130.8,17.8c-40.9,0-76.8-3.2-107.7-9.6v393.8h-64.3V2522.6z"/>
	<path class="st0" d="M5240.4,3081.7c-34.8-0.9-71.2,0.5-109.2,4.1c-38,3.7-73,11.6-105,23.9c-32.1,12.3-58.6,30.3-79.6,54
		c-21.1,23.8-31.6,55.2-31.6,94.4c0,23.7,3.7,43.9,11,60.9c7.3,16.8,16.9,30.8,28.8,41.7c11.9,11,25.6,19.2,41.2,24.6
		c15.6,5.5,31.6,8.2,48.1,8.2c26.5,0,50.3-3.6,71.4-10.9c21.1-7.3,39.4-17.1,54.9-29.4c15.6-12.3,28.6-26.2,39.2-41.7
		c10.5-15.5,18.5-31.5,24-47.9c4.6-16.4,6.8-29.7,6.8-39.6V3081.7z M5304.7,3277.3c0,26.5,0.4,52.9,1.3,79.3
		c0.9,26.5,3.7,51.9,8.2,76.5H5254l-9.6-92.9h-2.7c-8.2,12.8-18.7,25.5-31.5,38.2c-12.8,12.8-27.6,24.4-44.4,34.9
		c-16.9,10.4-36,18.8-57.4,25.2s-44.9,9.6-70.4,9.6c-31.9,0-59.9-5.3-84.1-15.7c-24.1-10.4-44-24.1-59.5-40.8
		c-15.5-16.9-27.1-36.1-34.9-57.9c-7.8-21.8-11.6-43.7-11.6-65.5c0-76.2,32.8-135.6,98.4-177.8c65.6-42.3,163.6-62.5,294-60.6v-17.9
		c0-17.4-1.6-37.4-4.8-59.9c-3.2-22.5-10.3-43.8-21.3-64c-11-20.2-27.5-37.1-49.4-50.9c-22-13.8-51.7-20.6-89.2-20.6
		c-28.4,0-56.6,4.3-84.4,13c-27.9,8.7-53.3,20.8-76.2,36.2l-20.5-47.8c29.2-20,59.4-34.3,90.5-43s63.6-13,97.4-13
		c45.8,0,83,7.8,111.9,23.2c28.8,15.5,51.4,35.5,67.9,60.1c16.4,24.6,27.6,52.2,33.6,82.7c5.9,30.5,8.9,60.9,8.9,91V3277.3z"/>
	<path class="st0" d="M5898.1,3035.3c0-19.2-2.3-38.8-6.8-58.8c-5.4-21.9-14.1-42.6-25.9-62.2c-11.9-19.6-26.5-36.4-43.8-50.6
		c-17.3-14.1-37.2-25.5-59.5-34.2c-22.4-8.6-46.3-13-71.8-13c-34.7,0-66.1,7.3-94.3,21.9c-28.3,14.6-52.2,35.1-71.8,61.5
		c-19.6,26.5-34.7,57.7-45.1,93.7s-15.7,75-15.7,116.9c0,37.4,4.5,72.9,13.7,106.6c9.1,33.8,23,63.8,41.7,90.2
		c18.7,26.5,41.9,47.4,69.7,63c27.8,15.5,60.8,23.2,99.1,23.2c44.6,0,86.1-14.3,124.4-43.1c38.3-28.6,64.8-70.9,79.3-126.4
		c4.6-18.3,6.8-36,6.8-53.4L5898.1,3035.3L5898.1,3035.3z M5962.4,2463.8v817.6c0,23.7,0.5,49.2,1.4,76.6
		c0.9,27.3,2.3,52.4,4.1,75.2h-61.5v-121.6h-4.1c-16.4,35.5-43.7,67.2-82,95s-87.1,41.7-146.3,41.7c-39.2,0-75.5-8-108.7-23.9
		c-33.3-15.9-62.2-38.5-86.8-67.6c-24.6-29.1-44-64.1-58.1-104.6c-14.1-40.6-21.2-85.9-21.2-136.1c0-54.7,7.5-103.9,22.6-147.6
		c15.1-43.8,35.6-80.9,61.5-111.5c26-30.5,56.5-54,91.6-70.4c35.1-16.4,72.7-24.6,112.8-24.6c27.4,0,52,3.2,73.8,9.5
		c21.9,6.4,41.5,14.8,58.8,25.3s32.3,22.6,45.1,36.2c12.7,13.7,22.7,27.8,30,42.4h2.7v-411.6H5962.4z"/>
	<path class="st0" d="M6313.8,2934.1c0-31-0.5-58.3-1.3-82c-0.9-23.7-2.3-48.7-4.1-75.2h62.9v113.4h5.4
		c20.1-36.9,46.5-67.4,79.4-91.3c32.8-23.8,75.6-35.8,128.5-35.8c44.7,0,83.2,13.2,115.5,39.3c32.4,26.2,55.4,59.6,69.1,100.2h2.7
		c18.3-36.1,40.5-65,66.8-86.7c20.9-17.2,43-30.2,66.2-39.3c23.1-9,51.4-13.5,85.1-13.5c16.4,0,36.4,3.2,59.9,9.6
		c23.7,6.4,46.7,19.5,68.9,39.6c22.2,20,41.3,48.2,57.2,84.5c15.9,36.5,23.8,85.1,23.8,146v390.2h-64.2v-382.8
		c0-72.9-13.5-129.9-40.3-171c-26.9-41-69.1-61.5-126.6-61.5c-40,0-74.9,13-104.5,39c-29.7,26-50.8,56.3-63.6,90.9
		c-2.8,10-5.2,20.2-7.5,30.7s-3.4,21.7-3.4,33.5V3433h-64.4v-412.8c0-58.3-13.4-106.7-40.3-144.9c-26.9-38.2-66.7-57.4-119.7-57.4
		c-20.8,0-40.9,4.2-60.1,12.3c-19.1,8.2-36.2,18.9-51.3,32.1c-15,13.3-28.2,28.8-39.6,46.5c-11.4,17.8-20.3,36.2-26.6,55.4
		c-2.7,10.1-5.1,20.3-6.8,30.7c-1.9,10.5-2.8,21.7-2.8,33.5v404.7h-64.2v-499H6313.8z"/>
	<path class="st0" d="M7356.9,2776.9h64.3v656.2h-64.3V2776.9z M7333.7,2577.2c0-15.4,5.2-28.7,15.7-39.6c10.5-11,23.4-16.5,39-16.5
		c15.4,0,28.7,5.5,39.6,16.5c11,10.9,16.5,24.1,16.5,39.6c0,15.6-5.5,28.5-16.5,38.9c-10.8,10.5-24.1,15.8-39.6,15.8
		c-15.6,0-28.5-5.2-39-15.8C7338.9,2605.7,7333.7,2592.8,7333.7,2577.2"/>
	<path class="st0" d="M7583.9,2934.1c0-31-0.5-58.3-1.4-82s-2.2-48.7-4-75.2h62.9v116.2h5.5c17.3-36.1,45.1-66.8,83.4-92
		c38.3-25.3,83.7-37.9,136.8-37.9c15.4,0,35.7,2.9,60.8,8.9c25.1,5.9,49.7,18.5,73.9,37.5c24,19.1,44.7,46.6,62.1,82.6
		c17.3,35.9,26,83.8,26,143.8v397.1h-64.2v-391c0-29.2-3-57.4-8.9-84.8c-6.1-27.3-15.7-51.3-29.5-71.8
		c-13.7-20.5-31.9-36.9-54.6-49.3c-22.8-12.3-50.7-18.5-83.5-18.5c-45.5,0-85.6,14.2-120.3,42.4c-34.6,28.3-58.3,64.2-71.1,108
		c-6.3,17.3-9.5,36.5-9.5,57.4v407.4h-64.4L7583.9,2934.1L7583.9,2934.1z"/>
	<path class="st0" d="M8247,2776.9h64.2v656.2H8247V2776.9z M8223.8,2577.2c0-15.4,5.2-28.7,15.8-39.6c10.5-11,23.4-16.5,38.9-16.5
		c15.6,0,28.8,5.5,39.7,16.5c11,10.9,16.4,24.1,16.4,39.6c0,15.6-5.4,28.5-16.4,38.9c-10.9,10.5-24.1,15.8-39.7,15.8
		c-15.5,0-28.4-5.2-38.9-15.8C8229,2605.7,8223.8,2592.8,8223.8,2577.2"/>
	<path class="st0" d="M9029.5,3117.1v-355.7c0-43.8,1.4-86.2,4.1-127.2l-4.1-1.4c-13.7,26.5-26,48.4-36.9,65.7
		c-11,17.3-21.9,34.7-32.9,52l-268.1,363.9v2.7H9029.5L9029.5,3117.1z M9029.5,3433.1v-261.2H8615v-43.8l422.9-584.1h55.9v573.2
		h134.1v54.7h-134.1v261.3h-64.3V3433.1z"/>
</g>
<g>
	<g>
		<path class="st0" d="M4225.8,124.9c32.9-40,55.2-95.5,49.1-150.8c-47.6,1.9-105.2,31.8-139.1,71.6
			c-30.7,35.4-57.3,91.9-49.9,146.2C4138.9,195.9,4192.8,164.8,4225.8,124.9 M4344.7,475.9c1.4,143.1,125.5,190.4,126.8,191.1
			c-1,3.3-19.7,67.8-65.1,134.2c-39.5,57.6-80.3,114.8-144.7,116.2c-63.1,1.1-83.5-37.6-155.8-37.5c-72.4,0-94.8,36.5-154.7,38.7
			c-62.3,2.4-109.5-62.1-149.2-119.5c-81.1-117.1-143.1-331.1-60-476c41.4-71.8,115.3-117.2,195.5-118.4
			c61.1-1.2,118.5,40.9,155.9,40.9c37.2,0,107.3-50.6,180.8-43.4c30.8,1.3,117.1,12.5,172.7,93.5
			C4442.3,298.7,4343.7,356.3,4344.7,475.9"/>
	</g>
	<g>
		<g>
			<path class="st0" d="M4734.8,61.5c0-15.3,5.2-28.3,15.5-39.1c10.3-10.8,23.1-16.2,38.4-16.2c15.3,0,28.3,5.4,39.1,16.2
				c10.8,10.8,16.2,23.8,16.2,39.1c0,15.3-5.4,28.1-16.2,38.4c-10.8,10.3-23.8,15.5-39.1,15.5c-15.3,0-28.1-5.2-38.4-15.5
				C4739.9,89.6,4734.8,76.8,4734.8,61.5z M4757.7,905.5V258.3h63.4v647.2H4757.7z"/>
			<path class="st0" d="M4968,7.6c26.1-4.5,54.8-8.5,86.3-12.1c31.5-3.6,66.1-5.4,103.8-5.4c53.9,0,100.4,6.5,139.5,19.5
				c39.1,13,71.2,31.7,96.4,56c21.2,21.6,37.7,47.2,49.6,76.9c11.9,29.7,17.8,63.8,17.8,102.5c0,46.7-8.3,87.6-24.9,122.7
				c-16.6,35.1-39.2,64.5-67.9,88.3c-28.7,23.8-62.7,41.6-102.1,53.3c-39.4,11.7-82.4,17.5-129,17.5c-40.3,0-75.7-3.1-106.2-9.4
				v388.3H4968V7.6z M5031.4,460.6c15.3,4.5,32.4,7.7,51.2,9.4c18.9,1.8,39.1,2.7,60.7,2.7c80,0,142.5-18.9,187.4-56.6
				c44.9-37.7,67.4-93,67.4-165.8c0-35.1-5.9-65.6-17.5-91.7c-11.7-26.1-28.3-47.4-49.9-64c-21.6-16.6-47.2-29.2-76.9-37.7
				c-29.7-8.5-62.5-12.8-98.4-12.8c-28.8,0-53.5,1.1-74.1,3.4c-20.7,2.3-37.3,4.7-49.9,7.4V460.6z"/>
			<path class="st0" d="M5940.1,751.8c0,26.1,0.4,52.1,1.3,78.2c0.9,26.1,3.6,51.2,8.1,75.5h-59.3l-9.4-91.7h-2.7
				c-8.1,12.6-18.4,25.2-31,37.7c-12.6,12.6-27.2,24.1-43.8,34.4c-16.6,10.3-35.5,18.7-56.6,24.9c-21.1,6.3-44.3,9.4-69.4,9.4
				c-31.5,0-59.1-5.2-82.9-15.4c-23.8-10.3-43.4-23.7-58.6-40.3c-15.3-16.6-26.8-35.6-34.4-57.1c-7.6-21.5-11.5-43-11.5-64.5
				c0-75.3,32.4-133.7,97.1-175.4c64.7-41.7,161.3-61.6,289.9-59.8v-17.6c0-17.2-1.6-36.9-4.7-59c-3.2-22.2-10.2-43.2-21-63.1
				c-10.8-19.9-27.1-36.7-48.7-50.2c-21.7-13.6-51-20.4-88-20.4c-28,0-55.8,4.3-83.3,12.8c-27.5,8.5-52.6,20.5-75.1,35.7l-20.2-47.2
				c28.8-19.8,58.5-33.9,89.2-42.5c30.7-8.5,62.7-12.8,96.1-12.8c45.1,0,81.9,7.6,110.3,22.9c28.4,15.3,50.7,35.1,67,59.3
				c16.2,24.3,27.3,51.5,33.1,81.6c5.9,30.1,8.8,60,8.8,89.7V751.8z M5876.7,559c-34.3-0.9-70.2,0.5-107.7,4
				c-37.5,3.6-72,11.5-103.6,23.6c-31.6,12.1-57.8,29.9-78.5,53.3c-20.8,23.4-31.1,54.4-31.1,93c0,23.4,3.6,43.4,10.8,60
				c7.2,16.6,16.7,30.3,28.4,41.1c11.7,10.8,25.3,18.9,40.6,24.3c15.3,5.4,31.1,8.1,47.4,8.1c26.2,0,49.6-3.6,70.4-10.8
				c20.8-7.2,38.8-16.8,54.2-29c15.3-12.1,28.2-25.8,38.6-41.1c10.4-15.3,18.3-31,23.7-47.2c4.5-16.2,6.7-29.2,6.7-39.1V559z"/>
			<path class="st0" d="M6588.6-50.4v806.2c0,23.4,0.4,48.5,1.4,75.5c0.9,27,2.2,51.7,4,74.2h-60.7v-120h-4
				c-16.2,35.1-43.1,66.3-80.9,93.7c-37.7,27.4-85.8,41.1-144.3,41.1c-38.7,0-74.4-7.9-107.2-23.6c-32.8-15.7-61.3-38-85.6-66.7
				c-24.3-28.8-43.4-63.1-57.3-103.1c-14-40-20.9-84.7-20.9-134.1c0-53.9,7.4-102.5,22.2-145.6c14.8-43.1,35.1-79.8,60.7-109.9
				c25.6-30.1,55.7-53.3,90.3-69.4c34.6-16.2,71.7-24.3,111.2-24.3c27,0,51.2,3.2,72.8,9.4c21.6,6.3,40.9,14.6,58,24.9
				c17.1,10.3,31.9,22.2,44.5,35.7c12.6,13.5,22.5,27.4,29.7,41.8h2.7V-50.4H6588.6z M6525.2,513.2c0-18.9-2.2-38.2-6.7-58
				c-5.4-21.6-14-42-25.6-61.3c-11.7-19.3-26.1-35.9-43.1-49.9c-17.1-13.9-36.6-25.2-58.6-33.7c-22-8.5-45.6-12.8-70.8-12.8
				c-34.2,0-65.2,7.2-93,21.6c-27.9,14.4-51.5,34.6-70.8,60.7c-19.3,26.1-34.2,56.9-44.5,92.3c-10.3,35.5-15.5,74-15.5,115.3
				c0,36.9,4.5,71.9,13.5,105.2c9,33.3,22.7,62.9,41.1,89c18.4,26.1,41.3,46.8,68.8,62c27.4,15.3,60,22.9,97.7,22.9
				c44,0,84.9-14.2,122.7-42.5c37.8-28.3,63.8-69.9,78.2-124.7c4.5-18,6.7-35.5,6.7-52.6V513.2z"/>
			<path class="st0" d="M7044.3,588.7l-110.6,316.8H6869L7189.9-3.2h62l319.5,908.7h-66.1l-110.6-316.8H7044.3z M7374.6,534.7
				l-106.5-300.7c-10.8-31.5-19.6-60-26.3-85.6c-6.7-25.6-13.7-51.4-20.9-77.5h-2.7c-7.2,27-14.4,53.3-21.6,78.9
				c-7.2,25.6-15.7,52.8-25.6,81.6l-107.9,303.4H7374.6z"/>
			<path class="st0" d="M7634.8,61.5c0-15.3,5.2-28.3,15.5-39.1c10.3-10.8,23.1-16.2,38.4-16.2c15.3,0,28.3,5.4,39.1,16.2
				c10.8,10.8,16.2,23.8,16.2,39.1c0,15.3-5.4,28.1-16.2,38.4c-10.8,10.3-23.8,15.5-39.1,15.5c-15.3,0-28.1-5.2-38.4-15.5
				C7639.9,89.6,7634.8,76.8,7634.8,61.5z M7657.7,905.5V258.3h63.4v647.2H7657.7z"/>
			<path class="st0" d="M7878.8,449.8c0-31.5-0.5-63.6-1.3-96.4c-0.9-32.8-2.3-64.5-4-95.1h60.7v129.4h4
				c14.4-40.4,37.3-74.6,68.8-102.5c31.5-27.8,69.2-41.8,113.3-41.8c7.2,0,15.3,0.9,24.3,2.7v62c-5.4-0.9-10.3-1.3-14.8-1.3
				c-4.5,0-9.9,0-16.2,0c-44,0-80.9,17.1-110.6,51.2c-29.7,34.2-48.5,76.9-56.6,128.1c-1.8,9.9-3.2,20-4,30.3
				c-0.9,10.3-1.3,20.5-1.3,30.3v358.6h-63.4L7878.8,449.8z"/>
			<path class="st0" d="M8403.3,905.5v-39.1l80.9-84.9c58.4-57.5,109-109.6,151.7-156.4c42.7-46.7,78.2-90.1,106.5-130.1
				c28.3-40,49.4-78.2,63.4-114.6c13.9-36.4,20.9-73.9,20.9-112.6c0-25.2-2.9-49.7-8.8-73.5c-5.8-23.8-16-44.7-30.3-62.7
				c-14.4-18-33.5-32.6-57.3-43.8c-23.8-11.2-53.7-16.8-89.7-16.8c-20.7,0-40,2.5-58,7.4c-18,4.9-34.6,11-49.9,18.2
				c-15.3,7.2-29.2,15.1-41.8,23.6c-12.6,8.6-23.4,16.9-32.4,24.9l-25.6-44.5c27-24.3,58.9-44.7,95.7-61.3
				c36.9-16.6,78.2-24.9,124-24.9c44,0,81.3,7.6,111.9,22.9c30.5,15.3,55.1,34.6,73.7,58c18.6,23.4,31.8,49.2,39.8,77.5
				c7.9,28.3,11.9,56,11.9,82.9c0,43.1-7.3,84.7-21.8,124.7c-14.5,40-36.1,80.9-64.7,122.7c-28.6,41.8-63.8,85.4-105.6,130.8
				c-41.8,45.4-89.2,95.1-142.2,149l-62,66.1v2.7h420.6v53.9H8403.3z"/>
		</g>
	</g>
</g>
</svg>
